<mxfile host="Electron" modified="2023-10-16T23:16:37.029Z" agent="Mozilla/5.0 (Macintosh; Intel Mac OS X 10_15_7) AppleWebKit/537.36 (KHTML, like Gecko) draw.io/22.0.2 Chrome/114.0.5735.289 Electron/25.8.4 Safari/537.36" etag="OT8gvFaDNxN7KAuwHhHs" version="22.0.2" type="device">
  <diagram name="Page-1" id="aoyIVfO3CUEC4T5Jt0nW">
    <mxGraphModel dx="1123" dy="824" grid="1" gridSize="10" guides="1" tooltips="1" connect="1" arrows="1" fold="1" page="1" pageScale="1" pageWidth="850" pageHeight="1100" math="0" shadow="0">
      <root>
        <mxCell id="0" />
        <mxCell id="1" parent="0" />
        <mxCell id="SBJoju6_GNzMy7LQw4vJ-16" value="" style="rounded=1;whiteSpace=wrap;html=1;fontSize=15;" parent="1" vertex="1">
          <mxGeometry x="390" y="190" width="170" height="280" as="geometry" />
        </mxCell>
        <mxCell id="SBJoju6_GNzMy7LQw4vJ-14" value="" style="rounded=1;whiteSpace=wrap;html=1;fontSize=15;" parent="1" vertex="1">
          <mxGeometry x="115" y="190" width="170" height="280" as="geometry" />
        </mxCell>
        <mxCell id="SBJoju6_GNzMy7LQw4vJ-1" value="User" style="sketch=0;outlineConnect=0;fontColor=#232F3E;gradientColor=none;strokeColor=#232F3E;fillColor=#ffffff;dashed=0;verticalLabelPosition=bottom;verticalAlign=top;align=center;html=1;fontSize=15;fontStyle=0;aspect=fixed;shape=mxgraph.aws4.resourceIcon;resIcon=mxgraph.aws4.user;" parent="1" vertex="1">
          <mxGeometry x="55" y="310" width="60" height="60" as="geometry" />
        </mxCell>
        <mxCell id="SBJoju6_GNzMy7LQw4vJ-6" value="Amazon Bedrock&lt;br style=&quot;font-size: 15px;&quot;&gt;Foudation Model" style="sketch=0;outlineConnect=0;fontColor=#232F3E;gradientColor=none;fillColor=#067F68;strokeColor=none;dashed=0;verticalLabelPosition=bottom;verticalAlign=top;align=center;html=1;fontSize=15;fontStyle=0;aspect=fixed;pointerEvents=1;shape=mxgraph.aws4.sagemaker_model;" parent="1" vertex="1">
          <mxGeometry x="436" y="320" width="78" height="78" as="geometry" />
        </mxCell>
        <mxCell id="SBJoju6_GNzMy7LQw4vJ-7" value="" style="shape=image;verticalLabelPosition=bottom;labelBackgroundColor=default;verticalAlign=top;aspect=fixed;imageAspect=0;image=data:image/png,iVBORw0KGgoAAAANSUhEUgAAANMAAAA9CAYAAAA3SVwrAAAAAXNSR0IArs4c6QAAAIRlWElmTU0AKgAAAAgABQESAAMAAAABAAEAAAEaAAUAAAABAAAASgEbAAUAAAABAAAAUgEoAAMAAAABAAIAAIdpAAQAAAABAAAAWgAAAAAAAABIAAAAAQAAAEgAAAABAAOgAQADAAAAAQABAACgAgAEAAAAAQAAANOgAwAEAAAAAQAAAD0AAAAASm4C3AAAAAlwSFlzAAALEwAACxMBAJqcGAAAF1tJREFUeAHtXAl4VNXZPvfOPpkte8gOCUlICASIVBSRxaWlgGgNKq1UxSL/3/r/1lq0/oqxVKpt/VUqKIqyCIIJWHEpoiLBhYiENQSIhIQsJGSZJDOT2Wfu7XviTJ4hhEjCDGJ7vud5c849y3fOfe/5zvnOuXdCCBPGAGOAMcAYYAwwBhgDjAHGAGOAMcAYYAwwBhgDjAHGAGOAMcAYYAz8RzHABftud+6cLE1XRMvaw0y81WoRnnuu1FVcTLzBbudi9BUWFspjM8fniJxiosVDcu12T5RUxhnlUu6whud2tUjbjxfOmeOibYiEcCAJARPGQP8MBM2Y6KA79rurkr3Jklnh+fpJfLhM77R52oztjj0tFveWr8tLGgsLidB/d0Kfu2Tdu0Pj9NHzFFrtfJlSlWAzW3hLh4lYbS7i4aREIpXWqBTe58OH6Dbefc2YNo7jmCGF/rH8W7QQNGOqnJkRZZGqVsiilTOrsxTKtPF6kpGpITabmxw+1v7u/irLo6W79h7/vlYpauzPvLbt6qHpqYuHJ8dda6r/Rn6wdDc5eaKSdHZ0uN0et0ym0JDIpHQSmTbaEZ8Y91JGvPav14wbcYYZ1L/FWA/5TUiC1ALfFJt9tz5Kda9R5dL89e06Inq9JCdTS7QGObHz3ow6s91glGj3HSxpMwWpzQtWIxYS/pm7//nj3JFZz4xKjZlwcvfHss1rVjsrKyvKXYJjm1Qh2+YUXd+0tJ6RnDp+OFIwtyo0auVYlVpzptnddWTtihXdLt8FN8gK/kcyEJSVaeKUSXMlSv3fR2eHRdw23U4Ej4MkpWCW18uIt8tD6lxdZEdVu7P8G/vzTqt96YbCKvOlYlssKpCskP32rrE5aY9FEVvyW6te4Q8fO9qki41eMumGGz7ILihoyuc4tyiKsuLi4iFbt21fUH302P1xWp1u8o3XNWZlj7gjMja2LD8/33ap+sza+WEyIA1Gt7GtmKFRy/Rmk0Baqu1k4ngF4b0eYm10E6voIjUOC7EKboVUJbnZ5lRuLiggBy6Vu7dS8eBNV4zKfCjSa0l+/fnn+aq62qr0vJwn83Lz3pkzZ06X//7hyrkRr6uvr3zp/kV/+lHLyepraw7tj0+Mj56ixD4KecyY/GSxsE8GgmJMXq+oMncaOZc9jOw+KCNSm5HEDkEYIyWnZQ5yymohbkEgOp0kXXTzt7XlpNWR4pOt6FFIN/frinYNzcjNvD9K4kxb+8Lz/MnTDSdGjB350LhxP/pk5syZfRpHYmJG07CkpBK7yTTudENTeFtj/Th7l/Ft9LW+TwZZImPAx0BQjEnweirdDkeFxymY99fIUs7w9thUzi7TE3iRGkz4nIdowziilBOeiOICuSLs9F2FeWvWFB7sDNWTKCsrk1kV0bOild68rS+/Iqs8Vdt0zdTJj2bn5n40ZcoUx/naxQolFD79dI1GZ+j02rsMp2tr41UKmfJ85Vk6Y8DPAO+PXEzY1dm13Ol1FWjVqhvb7MYfH+20bC87bXdWGV3E4RGIQS8niUlqMixNSfJGaXTZ2ZrFeZP1//381mmxWJuCsm/r3f82F5ciIc4ZX33wnnpvWZkza0TmX2xO57b+DMmvQ6FQK8PDDQqJREo8InEIPHdZvSfz95OFlxcDQVmZjhw50u0CHSaH6d1V5M9N2+C0iSPddjFFwsk4vV5DwiMlRCKREPrWJnaIGG4ykcUWrSv1wbcm/k1X+EVVYZDeQS1YsEAWkXdjUt3p5tkaUpe3u+RTOaeJaGp0qFoMQoQeL2ztwHnfd+EgQrL2ne25Kl6i33/qJBemjzgRptdYL6/Hdnn3BhzSSXqur5cVWO0PXN49Dk7vgmJMvbvicgsHvA6h3uEUE512qdRukxKFQkrkChEvRb3EK2L/pCdwnrhfZTm94fX8hD8WFJUeLZ5zcV9KFD6zPjFt7MjZeo1qdv3JivyD5V/rOtraCBc/PDIiIelppUK12+pNWLdu3V93zZv3+z4NpPjDL9NT0oZPVJnblZyE83K84iuFLqqj9z32vsYAGoU0rS/9CAbQJX8F0LtPobjGfcZCbzaQBaiASqACqMU9+/fAdFy9AVAxAlHdsRD88fH+FFTTvvwZfdgRgmYuSGVQ3LzeLYURd53d4a3vsggeo9FNWhoF0t4mIZ2dHDHjUNxu44gD238ZPLzEJPmtaemyF0epr8zA6jTo/jy19p8/mXD9pPVj02KfJcbqaZX7v9RXHjve7UK6za1ynWhKmnb16NtSMzLXVbYlPLbs9deje/f7pXXbYySGqIfjlJKcI3tKJdrIiJ0uj2tHVlZWe++yfVy/grQvfMjvI/8HnYRBeyvQgJs4A3wKrACeBd4HagAz8ich7C2K3glBvr4X+mYA0wBqVN+bDHrw9tfj0uIGu+j0VtutosNq95LmFjtpa3KS9haBmDBPOUwcsZs5YsXcbTeLRKeWTsxKUi3MnHV93ED3UJgKuZff/nzelKvG/S0tnJ/42Xub5cUbN3iqT55stODzC4mEJwriaCovK62tPX7IM2V8TuSQYekL3SRuauHq1T0HC4/8eUW4oFI9kpU05Javt3+oqmtqMGoio14xOWNOY5/l6e9+/53zYCAGYDPusRhI6OdeNcgL6yc/VFltAYrtAfFLHpWGqkWPyJ+y2QSb1cHpRbeN89hFEhUpJwYDT3iVCB8PVgBT7t7Z8wIPo1jAi562otIJy+eQ0gtZCQh9IfuG/pHpV2QkP6FxmVI3r9nIn6irrsOnQEsjPWJz1YnqP5k7OkdkpiTZebX+marq2kk5I0/PnnhFlqFsf+XPY73ycgyU4y++vilOakh4bMLY7Lkd3xzUl+za4dTFRC0blZ+/c+7cud/rAwrV8xmA3qdR9mcB5anLuxE4AZwGqAFRt2808J3uMMoEW9ZCod+INwRb+UD0hcyYBI+3EjZk7uoU4kS1l7O1dRKhS0kUHhkJg0EplCKRSrCHgiPmhbvH8bzS7SUPWCxCzerVqZvvvvvUeY+vv71BkfvHkKPXZw6J+bPc1JSy6c1NXFN7y9fD0tMXjxkzpmT48OG6F15csetox4HUtjbz0NRRqT+Va3UbG5tbU/OHZo7X6A0Ta060j1m2fqtBHp7w8FW5w29oqdirXL9qlYtT8c+NnJj/6h133GGEMQ2Ez0GXpSsAKlNY4PfTfcYFC+rSwRQBNKHud66iKK9FWS3KNvbXCMpRA/lVQJkixH+Deq0BaQOKQiddwcKB7+wrymLKJTEA9aCa0e45n3UhrRZ5DwMXJNBJXf94wIa6QTX+kLh59K48UuGow+Y5be7w4FsIHFLDZBrqTaS93kJcRnx4YLEQucVM1HYTiXCZiMFhItFuS0SEx/J7lShmFxWhUj+yeWd5ZkJC3B/iNVzGu1u2SNpMHV8OHZ76v263e8f06dOdMKbWnNyMN3Vx8Y2NLW2kuaFpVnursbDieE2M22nmDDql3uGxLZaFRfwjPytpxrEvPlKuXvmyxSvjX8sek/PCfXfeRx+2f0PdT08Gl4WHOhR4FqCrI3aQ3bM63Xu04Xo3sBDocUMRlwJf+PA4wgzgDeAk6liAOsCG680APSQ4R5D+AHAMGfRw5DTincD7wM2AX/dtARX/iLh/jNBBOw+cDNiQoDsNWA1UQwf9lOy8fUWZecBWoBnlnADdp9HyZ5D2EjAG8R7BNd3L+fv+a38G0u4LSE/2XZcin9471dmOtAYgaLNlyFamiuKG9pHTE7db2h35KpVSb4hSki57F6mFMcmdcPXo+Q5WJ5nKi5M+HEbwHMG3sUQlcqPMLvG+zhbtoxgjfc7QRUVF8qgY/bzkaO3Yr7d9IGvr6Dw4LGvY42q1bt/DD9/XMzMvnL+w7FSD8eXD7v0P1NfWJMQRT6ZMwRObxUoi1HISFSbJUDuMZPv6j8n+fXsbIhNjX51x3aRVs26/p3nRokJ0MKRyO7Q/eJ4WJiCdIge431eGDuqrfXEaLgZ6Pz86k1OXTA7MAnoEg2YNLn7Zk/BtRI/gpz74s7b4IwgDB+4fYUh0cA9U6Ep0HLjQvr6KsrT/vSUcCQuBn+NeRqEvp3wFhiD08/KVL40GKQHpdJLyTwo0zy8JiNAJ6RvoK/MnDjbsfYOD1dNnPY7jV3m63CPaz5DbeU6p0kVrSUdbFzlQayXmVi9JNIgkXisQAcaklYn4OAJTq1MgHg/3c5lF3Fv0W7JhznPE3lt57LCszOhw7R3tjfVhB44cbU8cmrA0QUzZM+e+Oe7AsvThg6jljz/5+P5jFSfuOV55fIqXl8ZwcqVc4bGS9mO7xd0Vx+oIJ/k4NSdjtTs1fd9Nd8x3kjvmB6oJVZzOtrhjcgooB44AdNa8GbgSoEJXpwdxH2fd17dZ3YOTDlJ6skZdF1ovDqAyE/XCUK/7+B9xetL1y+6cb/98jaAeaABuAlKBswR16FFzYkDinoD4QKN0nF1QX32K4bp0H7dTXk4A1GCouxkGUBf1LqAQuFChhuQC3geqgHHAFICmU8wBLm9jKv+griP3uuQ/2bo8mo4W50wJp1BqYwwYMRJyqMWEFcJDRK2X2LBCGWBQGgkhgiASu4OEeVxknldQfoKzP+pe0EHXI06PJ8+gVRtqmho4jUFxMDoqZk/BnQWOvuZ5alCoWLL8L385vv2L0rzR48c/qTdox35zaJ9UyokbIhPDX5s6+xflN0+b1o6yZ7XT02AIImhrAwbsPxBSF69HkLYKF9TFoQOQYhhQCQSKBxe/AIpRX6AZqLccATVIv6QgctR3gVW+R95D7BbUozpovYcRrAPogAqUNFxQI/XLKX9kgOFA+0r7TfdHZz0L9JPep38lzxxgH7ah/ELorPPXg75ixG/1Xaf60y8mpFYZUin/pK5abvMu6jJ7VjXX203mVhfRReqINC6CHHIoSGkjR47Xi6SlSSDGMyKxtuD7IhyXe00k390qzHttFqFuwtnisCVJeYnMxUnd0ZER5Uaj0dyb/LMrEPLrRYvOPPHC3zun3TAjvMvYITlx+FCDnCdFUVGpu2+57jrjd9XvrS8Y12jzLEOiOpFGTzI/D9BPZ+Pe4kC5t4BuQ6KZiNMXp6cDClKXzy9j/BGE1F3rNiSahjidbHobK82KoX98Yke57lXOnzCAcEB9RTvn+zHm1oA2++IkIPuc6A7o7TEkX+5HAaUCuQpIHlg05MZEu3Ow5MwpItW/ZLMKZY21NldHk50YwsOIJt5ATsq05IsuBdnbzJNm7JCENoGIMChVp6BSWMQ7VSZyZWHO2T60x+VQegWBt3llgk1UduEzpZ5Bdb7b31FWltbW4VoSo+ZTdr73HtdQXbczcURW+RNPPNGXC3U+NUFNx+wYBvwaoBvrd4E1wONoJGqQDZ1zOgd99IQw3KePvonYf4G6mwLK4UyoW09A0kVHz+mrXyPauhJ4CtgEvA38P/J+6s8PUhg48QRFJXUjLolEJnAWR5vCiBVKaKq1C1I5L4aHq/BKFWekjTzZ65SROo+X5LldZAx+6m5w4rm7xaFWQVaQqHPvQzE6Y3eL02oxeexdXl6mVlqIPoF3nW1s/nL+cPXGbaldLvXSK7JjJpZu2yYv2f5R09ARwzZUVtY2YsY6y53w1wl1iAFyBdqgLldsiNuKDNBPV5jvnHh85asRUm78rh51v0L2lT9tE5zQtlYB99DrH5pckpWJkiK2OhwyNekwxCkFmVJSZ7cIJUh2hGmURK9WwjLwuz2FrOafCnXLenmY/YAEPzDEmqPp4mc7k+JvLLwrteeY2Ol0VjbWVztThujx6Zz+yvDUIak44cOO61x5Yd37IzWJic+Oy0yZdeyzz5RFG9c7dNHh69z6yDJ88Eo3pZdcMGgo75sBvyHRfpwEqG+/AzABwZJ6KPLfpwZtX5CLBKOj7l9DQCeuD4iHKjofigMNifb9GEBPGMuBy1oumTF9nlNltJu9X4letylMz73r5r1PmTqdtXa7S1Cq5aVD4qLvjg/X3inTqn5zWBv25JYYzfaPR0c7O4brosOGGhaHzUi9ddHWq+lJDrFarfsPHThQpfSYvLlZKZk1zZZ7yypbMwoKCnoMCl+Pq59e+fbE4TmZL0zIGTbj2O4S5apVK10eXtxw7Y2TVy79wx+C+sJugE85H+WTA+qMw+BNB6YD1yH9w4C8i4pCHzWkwIOJggEoDDzhegSGqBtA3cEUvSWg0mb0PRnIBuhBQe8DkoCil0c0ZG4eHdhWrzeReB1xpMvZIe6R2/ADQh6/yP2yy2vaVN5VU3blsPQXiFfygEwjFNmU5v37Xmvs2ZCH3ZP5xi7B+WzjCP3sMSMisiIMsmWcW657aN2otfPnzW8qLFzyt01r1zw/fdbshKmT8n9VcSLmGnVs8qeZk35WpdHrVUOTk8dnDY3/kVa0xr298kX+yz2lJoVG8dzV105bXlBw5/dy4BDwyANdLxMGS89gx4ClE0JgfkC1QUepmzzWV3sp2qA/i9hLrxH/MYLbfXm9g8eRMAvw9+kTlL8XdQ/3Loh0HukX6kL2ru6/DrzvL/2JvtC/ivdKvnwuQ2ZMzc3N+IWq4n58JjRT5ETBZbM1erxevUEVOySCi0+J06VvJq0k3u626RytlqtU+kTd1DmpZXZR3FtaXGqvfL2yMeemuCX1AmeRSDtvHSnnwpVK2SKnVW2at3T8hxPGzdq2ZevK9JUrV/xu5qybo6aOG51tcw3LEkTBppBw2JIJyubqcrK6eBOpq6ttiE1KeHbKlOvWwcg78NBDvU96CINrbj+PeWVAnh5ll+B6NxAHPATQb92CKc9AGZ316WAdAuxBm3aEDiAC6FPAUwXKvYLM//IVoPu8fUijA70KoC99W4ExQC69D9ShbQ1WalBxvK/yPdDXhjjVPxNY4Eu/bIOQGRPP8x0Ol2uLIOBH7R6PGtgjk8nsDrtzltvtjJVIZeNkMmmG3eY65HB4OgXBMUIqSlsUMoHOevRBk4qtZ47mzU5d1N7keqvc2ZGTOkwbpVYStSpWprjxxtHG17ZuXb773XdPv/ryykejIiOHJyYnSbT4JaK5o52cOllDWpqbXHin9HHaiIxlubljvsQ/UBns8e5AHyCd7fuTJ5F5CBjtK/RYf4UvNg8D/CQGJjWmTwAZQDf6ah8Q9CuLkEu3A3Qw03p0zFzrA4KzhJ4cXowUo/JtPgW5CN+4GGWXum7IjKmkpKQLN1Oak5NDXQxSUVHRfQQ9efLkD6xmuyQiQsXhv6dK3F63x4ofP0ksckmDzuypeqeKbnx75OA7p+gJEt2UlyxYOY5XWGL4az7XeGiB+TfdZMHBw5v79u3b32E2X3/owP6JLS2tcWqV0hUfH185Ki/vMxj1p089JW/luHkX64LQJvsT+qL1QoROFPSe6KB5ExgL+MWLyFagAfgff6IvpPdsBAJdoV5Ful/29k7rvoZBfQaDysDFT4AbALoi0YlrG0BdufsAKj2uNr1APfoc6ZcYmxDSFXQk0NtoziCN6toDUBlUX9HWFrTzGOpT9xKv8XuEHtP/H7AM0PSknhsJfAaB8XNLfvtivK/0QafRmYbJ98QABg6d8TOBYUA7cAgD6qzBjLSQC/qxC41M8jU0FX3Y2V+jKE/dUdpvKnT/Rd2xoAn0U0PPAbTAUeg/hZAJY+DyZgADdxoQKHRPxWQQDITMzRtEX1iVEDEAS4mGauqG0dXvoA8mhGOB+YBf1mEVoC4VE8YAY6AvBmBM2YFLz3nidUiP6as+S2MMMAZ8DMBI6JcPS4BqoLfQH8ktA+j+hMlFMMAOIC6CvB9iVRhNOPqdCNCj8Rq4dS0/xPtgfWYMMAYYA4wBxgBjgDHAGGAMMAYYA4wBxgBjgDHAGGAMMAYYA4wBxgBjgDHAGGAMMAYYA4wBxgBjgDHAGGAMMAYYA4wBxgBjgDHAGGAMMAYYA4wBxgBjgDHAGGAMMAYYA4wBxgBjgDHAGGAMMAYYA4wBxgBjgDHAGGAM9MXAvwB7fLipGRjcpQAAAABJRU5ErkJggg==;fontSize=15;" parent="1" vertex="1">
          <mxGeometry x="425" y="209" width="245.59" height="71" as="geometry" />
        </mxCell>
        <mxCell id="SBJoju6_GNzMy7LQw4vJ-8" value="Statement" style="shape=document;whiteSpace=wrap;html=1;boundedLbl=1;fontSize=15;" parent="1" vertex="1">
          <mxGeometry x="140" y="220" width="120" height="80" as="geometry" />
        </mxCell>
        <mxCell id="SBJoju6_GNzMy7LQw4vJ-9" value="Task" style="shape=document;whiteSpace=wrap;html=1;boundedLbl=1;fontSize=15;" parent="1" vertex="1">
          <mxGeometry x="140" y="370" width="120" height="80" as="geometry" />
        </mxCell>
        <mxCell id="SBJoju6_GNzMy7LQw4vJ-11" value="" style="shape=cross;whiteSpace=wrap;html=1;fontSize=15;" parent="1" vertex="1">
          <mxGeometry x="180" y="310" width="40" height="40" as="geometry" />
        </mxCell>
        <mxCell id="SBJoju6_GNzMy7LQw4vJ-15" value="Prompt" style="text;html=1;strokeColor=none;fillColor=none;align=center;verticalAlign=middle;whiteSpace=wrap;rounded=0;fontSize=15;" parent="1" vertex="1">
          <mxGeometry x="170" y="480" width="60" height="30" as="geometry" />
        </mxCell>
        <mxCell id="SBJoju6_GNzMy7LQw4vJ-17" value="Fake News&lt;br style=&quot;font-size: 15px;&quot;&gt;Statement&lt;br style=&quot;font-size: 15px;&quot;&gt;(True/False)" style="shape=document;whiteSpace=wrap;html=1;boundedLbl=1;fontSize=15;" parent="1" vertex="1">
          <mxGeometry x="656" y="285" width="120" height="90" as="geometry" />
        </mxCell>
        <mxCell id="SBJoju6_GNzMy7LQw4vJ-18" value="Output" style="text;html=1;strokeColor=none;fillColor=none;align=center;verticalAlign=middle;whiteSpace=wrap;rounded=0;fontSize=15;" parent="1" vertex="1">
          <mxGeometry x="681.5899999999999" y="380" width="60" height="30" as="geometry" />
        </mxCell>
        <mxCell id="SBJoju6_GNzMy7LQw4vJ-19" value="" style="shape=flexArrow;endArrow=classic;html=1;rounded=0;fontSize=15;" parent="1" edge="1">
          <mxGeometry width="50" height="50" relative="1" as="geometry">
            <mxPoint x="300" y="330" as="sourcePoint" />
            <mxPoint x="370" y="330" as="targetPoint" />
          </mxGeometry>
        </mxCell>
        <mxCell id="SBJoju6_GNzMy7LQw4vJ-20" value="" style="shape=flexArrow;endArrow=classic;html=1;rounded=0;fontSize=15;" parent="1" edge="1">
          <mxGeometry width="50" height="50" relative="1" as="geometry">
            <mxPoint x="580" y="329.63" as="sourcePoint" />
            <mxPoint x="650" y="329.63" as="targetPoint" />
          </mxGeometry>
        </mxCell>
        <mxCell id="F7_g9lyoFk5UsKgdlgmK-3" value="LangChain" style="text;html=1;strokeColor=none;fillColor=none;align=center;verticalAlign=middle;whiteSpace=wrap;rounded=0;fontSize=15;" parent="1" vertex="1">
          <mxGeometry x="445" y="255" width="60" height="30" as="geometry" />
        </mxCell>
      </root>
    </mxGraphModel>
  </diagram>
</mxfile>
